<mxfile host="app.diagrams.net" agent="Mozilla/5.0 (Windows NT 10.0; Win64; x64; rv:134.0) Gecko/20100101 Firefox/134.0" version="24.8.3">
  <diagram name="第 1 页" id="uDdVLhxK45GIt-eZbvG4">
    <mxGraphModel dx="922" dy="505" grid="1" gridSize="10" guides="1" tooltips="1" connect="1" arrows="1" fold="1" page="1" pageScale="1" pageWidth="827" pageHeight="1169" math="0" shadow="0">
      <root>
        <mxCell id="0" />
        <mxCell id="1" parent="0" />
        <mxCell id="_XNy-wXcN2NR_vY3s3ic-3" value="Gluetun" style="rounded=0;whiteSpace=wrap;html=1;fontFamily=Noto Sans TC;fontSource=https%3A%2F%2Ffonts.googleapis.com%2Fcss%3Ffamily%3DNoto%2BSans%2BTC;fontSize=14;" parent="1" vertex="1">
          <mxGeometry x="160" y="120" width="160" height="80" as="geometry" />
        </mxCell>
        <mxCell id="_XNy-wXcN2NR_vY3s3ic-4" value="qBittorrent" style="rounded=0;whiteSpace=wrap;html=1;fontFamily=Noto Sans TC;fontSource=https%3A%2F%2Ffonts.googleapis.com%2Fcss%3Ffamily%3DNoto%2BSans%2BTC;fontSize=14;" parent="1" vertex="1">
          <mxGeometry x="400" y="120" width="160" height="80" as="geometry" />
        </mxCell>
        <mxCell id="_XNy-wXcN2NR_vY3s3ic-5" value="PortUpdateHelper" style="rounded=0;whiteSpace=wrap;html=1;fontFamily=Noto Sans TC;fontSource=https%3A%2F%2Ffonts.googleapis.com%2Fcss%3Ffamily%3DNoto%2BSans%2BTC;fontSize=14;" parent="1" vertex="1">
          <mxGeometry x="280" y="280" width="160" height="80" as="geometry" />
        </mxCell>
        <mxCell id="_XNy-wXcN2NR_vY3s3ic-9" value="API" style="rounded=0;whiteSpace=wrap;html=1;fontFamily=Noto Sans TC;fontSource=https%3A%2F%2Ffonts.googleapis.com%2Fcss%3Ffamily%3DNoto%2BSans%2BTC;" parent="1" vertex="1">
          <mxGeometry x="260" y="190" width="40" height="20" as="geometry" />
        </mxCell>
        <mxCell id="_XNy-wXcN2NR_vY3s3ic-10" value="API" style="rounded=0;whiteSpace=wrap;html=1;fontFamily=Noto Sans TC;fontSource=https%3A%2F%2Ffonts.googleapis.com%2Fcss%3Ffamily%3DNoto%2BSans%2BTC;" parent="1" vertex="1">
          <mxGeometry x="500" y="190" width="40" height="20" as="geometry" />
        </mxCell>
        <mxCell id="_XNy-wXcN2NR_vY3s3ic-12" value="&lt;div&gt;curl&lt;/div&gt;" style="rounded=0;whiteSpace=wrap;html=1;fontFamily=Noto Sans TC;fontSource=https%3A%2F%2Ffonts.googleapis.com%2Fcss%3Ffamily%3DNoto%2BSans%2BTC;" parent="1" vertex="1">
          <mxGeometry x="180" y="190" width="40" height="20" as="geometry" />
        </mxCell>
        <mxCell id="_XNy-wXcN2NR_vY3s3ic-13" value="" style="endArrow=classic;html=1;rounded=1;entryX=0;entryY=0.5;entryDx=0;entryDy=0;exitX=0.5;exitY=1;exitDx=0;exitDy=0;curved=0;fontFamily=Noto Sans TC;fontSource=https%3A%2F%2Ffonts.googleapis.com%2Fcss%3Ffamily%3DNoto%2BSans%2BTC;" parent="1" source="_XNy-wXcN2NR_vY3s3ic-12" target="_XNy-wXcN2NR_vY3s3ic-5" edge="1">
          <mxGeometry width="50" height="50" relative="1" as="geometry">
            <mxPoint x="50" y="380" as="sourcePoint" />
            <mxPoint x="100" y="330" as="targetPoint" />
            <Array as="points">
              <mxPoint x="200" y="320" />
            </Array>
          </mxGeometry>
        </mxCell>
        <mxCell id="_XNy-wXcN2NR_vY3s3ic-14" value="1" style="ellipse;whiteSpace=wrap;html=1;aspect=fixed;fontFamily=Noto Sans TC;fontSource=https%3A%2F%2Ffonts.googleapis.com%2Fcss%3Ffamily%3DNoto%2BSans%2BTC;fontStyle=0" parent="1" vertex="1">
          <mxGeometry x="170" y="260" width="20" height="20" as="geometry" />
        </mxCell>
        <mxCell id="_XNy-wXcN2NR_vY3s3ic-15" value="" style="endArrow=classic;html=1;rounded=1;entryX=0.5;entryY=1;entryDx=0;entryDy=0;exitX=0.25;exitY=0;exitDx=0;exitDy=0;curved=0;fontFamily=Noto Sans TC;fontSource=https%3A%2F%2Ffonts.googleapis.com%2Fcss%3Ffamily%3DNoto%2BSans%2BTC;" parent="1" source="_XNy-wXcN2NR_vY3s3ic-5" target="_XNy-wXcN2NR_vY3s3ic-9" edge="1">
          <mxGeometry width="50" height="50" relative="1" as="geometry">
            <mxPoint x="100" y="290" as="sourcePoint" />
            <mxPoint x="180" y="400" as="targetPoint" />
            <Array as="points">
              <mxPoint x="320" y="250" />
              <mxPoint x="280" y="250" />
            </Array>
          </mxGeometry>
        </mxCell>
        <mxCell id="_XNy-wXcN2NR_vY3s3ic-16" value="" style="endArrow=classic;html=1;rounded=1;entryX=0.5;entryY=1;entryDx=0;entryDy=0;exitX=1;exitY=0.5;exitDx=0;exitDy=0;curved=0;fontFamily=Noto Sans TC;fontSource=https%3A%2F%2Ffonts.googleapis.com%2Fcss%3Ffamily%3DNoto%2BSans%2BTC;" parent="1" source="_XNy-wXcN2NR_vY3s3ic-5" target="_XNy-wXcN2NR_vY3s3ic-10" edge="1">
          <mxGeometry width="50" height="50" relative="1" as="geometry">
            <mxPoint x="610" y="320" as="sourcePoint" />
            <mxPoint x="570" y="250" as="targetPoint" />
            <Array as="points">
              <mxPoint x="520" y="320" />
            </Array>
          </mxGeometry>
        </mxCell>
        <mxCell id="_XNy-wXcN2NR_vY3s3ic-17" value="2" style="ellipse;whiteSpace=wrap;html=1;aspect=fixed;fontFamily=Noto Sans TC;fontSource=https%3A%2F%2Ffonts.googleapis.com%2Fcss%3Ffamily%3DNoto%2BSans%2BTC;fontStyle=0" parent="1" vertex="1">
          <mxGeometry x="250" y="230" width="20" height="20" as="geometry" />
        </mxCell>
        <mxCell id="_XNy-wXcN2NR_vY3s3ic-20" value="3" style="ellipse;whiteSpace=wrap;html=1;aspect=fixed;fontFamily=Noto Sans TC;fontSource=https%3A%2F%2Ffonts.googleapis.com%2Fcss%3Ffamily%3DNoto%2BSans%2BTC;fontStyle=0" parent="1" vertex="1">
          <mxGeometry x="530" y="260" width="20" height="20" as="geometry" />
        </mxCell>
        <mxCell id="_XNy-wXcN2NR_vY3s3ic-24" value="" style="curved=1;endArrow=classic;html=1;rounded=0;entryX=0;entryY=0.75;entryDx=0;entryDy=0;exitX=0.126;exitY=1.004;exitDx=0;exitDy=0;exitPerimeter=0;fontFamily=Noto Sans TC;fontSource=https%3A%2F%2Ffonts.googleapis.com%2Fcss%3Ffamily%3DNoto%2BSans%2BTC;" parent="1" source="_XNy-wXcN2NR_vY3s3ic-5" target="_XNy-wXcN2NR_vY3s3ic-5" edge="1">
          <mxGeometry width="50" height="50" relative="1" as="geometry">
            <mxPoint x="300" y="370" as="sourcePoint" />
            <mxPoint x="430" y="390" as="targetPoint" />
            <Array as="points">
              <mxPoint x="300" y="390" />
              <mxPoint x="250" y="390" />
              <mxPoint x="250" y="340" />
            </Array>
          </mxGeometry>
        </mxCell>
        <mxCell id="_XNy-wXcN2NR_vY3s3ic-25" value="4" style="ellipse;whiteSpace=wrap;html=1;aspect=fixed;fontFamily=Noto Sans TC;fontSource=https%3A%2F%2Ffonts.googleapis.com%2Fcss%3Ffamily%3DNoto%2BSans%2BTC;fontStyle=0" parent="1" vertex="1">
          <mxGeometry x="220" y="360" width="20" height="20" as="geometry" />
        </mxCell>
        <mxCell id="_XNy-wXcN2NR_vY3s3ic-26" value="" style="endArrow=none;html=1;rounded=1;curved=0;dashed=1;fontFamily=Noto Sans TC;fontSource=https%3A%2F%2Ffonts.googleapis.com%2Fcss%3Ffamily%3DNoto%2BSans%2BTC;" parent="1" edge="1">
          <mxGeometry width="50" height="50" relative="1" as="geometry">
            <mxPoint x="520" y="80" as="sourcePoint" />
            <mxPoint x="520" y="80" as="targetPoint" />
            <Array as="points">
              <mxPoint x="580" y="80" />
              <mxPoint x="580" y="420" />
              <mxPoint x="140" y="420" />
              <mxPoint x="140" y="80" />
            </Array>
          </mxGeometry>
        </mxCell>
        <mxCell id="_XNy-wXcN2NR_vY3s3ic-28" value="Docker" style="rounded=1;whiteSpace=wrap;html=1;dashed=1;fontFamily=Noto Sans TC;fontSource=https%3A%2F%2Ffonts.googleapis.com%2Fcss%3Ffamily%3DNoto%2BSans%2BTC;" parent="1" vertex="1">
          <mxGeometry x="320" y="70" width="80" height="20" as="geometry" />
        </mxCell>
        <mxCell id="_XNy-wXcN2NR_vY3s3ic-30" value="chu3an@GitHub" style="text;html=1;align=center;verticalAlign=middle;whiteSpace=wrap;rounded=0;fontFamily=Noto Sans TC;fontSource=https%3A%2F%2Ffonts.googleapis.com%2Fcss%3Ffamily%3DNoto%2BSans%2BTC;" parent="1" vertex="1">
          <mxGeometry x="470" y="390" width="100" height="20" as="geometry" />
        </mxCell>
      </root>
    </mxGraphModel>
  </diagram>
</mxfile>
